<svg viewBox="0 0 76 76" fill="none" xmlns="http://www.w3.org/2000/svg">
    <path
            d="M22.7011 35.7734C25.0864 35.7169 27.1151 34.7667 29.2612 33.76C31.6987 32.6162 34.4601 31.3203 38 31.3203C41.5399 31.3203 44.3013 32.6162 46.7388 33.7578C48.8846 34.7642 50.9176 35.7101 53.3616 35.7639C53.467 35.0336 53.5859 34.306 53.5859 33.5469V24.7552C49.1187 22.6529 42.9226 22.2656 38 22.2656C33.0738 22.2656 26.8764 22.6551 22.4141 24.7545V33.5469C22.4141 34.3092 22.5328 35.0399 22.6391 35.7734H22.7011Z"
            fill="black"/>
    <path
            d="M53.5859 19.87V13.6224C49.1187 11.5201 42.9226 11.1328 38 11.1328C33.0738 11.1328 26.8764 11.5223 22.4141 13.6217V19.87C24.3538 19.1714 29.2419 17.8125 38 17.8125C46.7581 17.8125 51.6461 19.1714 53.5859 19.87Z"
            fill="black"/>
    <path
            d="M52.0934 40.0964C49.2575 39.7939 46.9162 38.7597 44.8473 37.7891C42.6358 36.7519 40.5463 35.7734 38.0001 35.7734C35.454 35.7734 33.3644 36.754 31.153 37.7913C29.0814 38.763 26.7349 39.802 23.9102 40.1023C26.3951 45.4176 31.7561 49.1328 38.0001 49.1328C44.2465 49.1328 49.6094 45.4152 52.0934 40.0964Z"
            fill="black"/>
    <path
            d="M53.5859 8.73718V3.77907C53.5859 2.80057 52.9466 1.93518 52.0095 1.65033C49.9939 1.03283 45.493 0 38 0C30.5049 0 26.004 1.03283 23.9905 1.65033C23.0534 1.93518 22.4141 2.80057 22.4141 3.77907V8.73718C24.3538 8.03863 29.2419 6.67969 38 6.67969C46.7581 6.67969 51.6461 8.03863 53.5859 8.73718Z"
            fill="black"/>
    <path
            d="M44.6797 57.589V52.3545C42.58 53.1031 40.3535 53.5855 38 53.5855C35.6465 53.5855 33.42 53.1031 31.3203 52.3545V57.589L38 62.0421L44.6797 57.589Z"
            fill="black"/>
    <path
            d="M3.67265 68.1588L2.44195 73.0859C2.27452 73.7512 2.42459 74.6043 2.84645 75.1434C3.26831 75.6848 3.91624 76 4.60113 76H35.7733V65.9103L23.9672 58.0393H17.9608C9.8003 58.0393 5.62549 56.0628 5.58423 56.041C4.49485 55.5083 3.16202 55.9497 2.60969 57.0434C2.05958 58.1436 2.50534 59.4809 3.60556 60.031C3.71243 60.084 5.15124 60.767 7.82712 61.4011C5.84815 63.1448 4.35056 65.4503 3.67265 68.1588ZM29.0936 66.9452C30.3233 66.9452 31.3202 67.9421 31.3202 69.1718C31.3202 70.4017 30.3233 71.3983 29.0936 71.3983C27.8637 71.3983 26.867 70.4017 26.867 69.1718C26.867 67.9421 27.8637 66.9452 29.0936 66.9452Z"
            fill="black"/>
    <path
            d="M40.2266 65.9101V75.9998H71.3987C72.0836 75.9998 72.7316 75.6846 73.1534 75.1432C73.5753 74.6039 73.7254 73.751 73.5579 73.0857L72.3272 68.1586C71.6502 65.4504 70.1526 63.1443 68.1733 61.4007C70.8489 60.7666 72.2876 60.0839 72.3943 60.0308C73.4902 59.4829 73.9315 58.1565 73.3902 57.0585C72.8531 55.9648 71.5224 55.5082 70.4156 56.0409C70.3744 56.0625 66.1996 58.0389 58.0391 58.0389H52.0327L40.2266 65.9101ZM46.9063 71.398C45.6763 71.398 44.6797 70.4014 44.6797 69.1714C44.6797 67.9418 45.6763 66.9449 46.9063 66.9449C48.1359 66.9449 49.1328 67.9418 49.1328 69.1714C49.1328 70.4014 48.1359 71.398 46.9063 71.398Z"
            fill="black"/>
</svg>
