<svg viewBox="0 0 1301 912" fill="none" xmlns="http://www.w3.org/2000/svg">
    <path d="M1300.3 917.649C1300.3 917.649 1300.3 716.913 1141.78 706.506C983.253 695.826 916.723 653.652 906.593 632.565C896.462 611.478 751.902 381.166 523.836 446.343C295.77 511.521 212.538 415.945 122.735 408.003C32.9329 400.062 -24.8364 434.294 -24.8364 434.294V923.4"
          fill="#E9F3FF"/>
    <path d="M644.209 259.907C616.05 248.068 602.818 215.638 614.654 187.472C626.49 159.306 658.912 146.071 687.071 157.91C715.229 169.748 728.462 202.178 716.626 230.344C704.79 258.51 672.368 271.745 644.209 259.907Z"
          fill="#E9F3FF"/>
    <path d="M975.861 652.283C950.458 652.283 929.864 631.684 929.864 606.275C929.864 580.865 950.458 560.267 975.861 560.267C1001.26 560.267 1021.86 580.865 1021.86 606.275C1021.86 631.684 1001.26 652.283 975.861 652.283Z"
          fill="#E9F3FF"/>
    <path d="M919.042 508.27C916.113 495.907 923.758 483.51 936.118 480.58C948.478 477.65 960.872 485.297 963.801 497.66C966.73 510.023 959.085 522.42 946.725 525.35C934.365 528.28 921.971 520.633 919.042 508.27Z"
          fill="#E9F3FF"/>
    <path d="M88.5121 111.144C57.9679 111.144 33.207 86.3769 33.207 55.8252C33.207 25.2734 57.9679 0.506348 88.5121 0.506348C119.056 0.506348 143.817 25.2734 143.817 55.8252C143.817 86.3769 119.056 111.144 88.5121 111.144Z"
          fill="#E9F3FF"/>
    <path d="M306.174 170.023C289.995 170.023 276.879 156.904 276.879 140.721C276.879 124.537 289.995 111.418 306.174 111.418C322.354 111.418 335.47 124.537 335.47 140.721C335.47 156.904 322.354 170.023 306.174 170.023Z"
          fill="#E9F3FF"/>
    <path d="M777.365 208.911C777.365 219.591 785.852 228.081 796.53 228.081C807.208 228.081 815.695 219.591 815.695 208.911C815.695 198.23 807.208 189.741 796.53 189.741C785.852 189.741 777.365 198.23 777.365 208.911Z"
          fill="#E9F3FF"/>
</svg>
